# xmcd CD database file
#
# Track frame offsets:
#	150
#	21975
#	32850
#	50887
#	67225
#	81700
#	97375
#	116425
#	128325
#	148637
#	160875
#
# Disc length: 2304 seconds
#
# Revision: 0
# Processed by: cddbd v1.5PL3 Copyright (c) Steve Scherf et al.
# Submitted via: CDex 1.51
#
DISCID=a708fe0b
DTITLE=Chris Youlden - Nowhere Road
DYEAR=1972
DGENRE=Blues
TTITLE0=Nowhere Road
TTITLE1=One October Day
TTITLE2=Chink of sanity
TTITLE3=Crying in the road
TTITLE4=Mamma don't you talk so loud
TTITLE5=Standing in the corner
TTITLE6=In the wood
TTITLE7=Wake up neighbour
TTITLE8=Street sounds
TTITLE9=Time will tell
TTITLE10=Pick up my dogs
EXTD=YEAR: 1972
EXTT0=
EXTT1=
EXTT2=
EXTT3=
EXTT4=
EXTT5=
EXTT6=
EXTT7=
EXTT8=
EXTT9=
EXTT10=
PLAYORDER=
